<?xml version="1.0" encoding="UTF-8"?>
<svg id="Layer_1" data-name="Layer 1" xmlns="http://www.w3.org/2000/svg" viewBox="0 0 200 200">
  <path d="M172.41,167.21c-.75,3.63-1.8,7.35-2.65,10.85-.39,1.69-1.24,2.27-3.2,2.07-36.33.04-118.01-.02-134.49,0-8.3-1.4-5.11-14.23-5.79-20.57-.61-14.07,7.72-22.61,17.86-30.84,7.03-7.47,17.19-9.98,26.45-13.34,23.81-9.02,5.14-17.7-1.76-30.92-1.53-2.83-1.9-6.14-2.75-9.21-.93-3.66-2.22-6.06-1.77-9.27,3.08-7.52.77-17.51,2.98-25.12,3.74-8.51,13.16-18.1,22.23-20.48,5.87-.44,13.68-1.24,19.52.82,5.95,3.04,12.38,6.64,16.31,12.27,5.14,5.39,4.83,13,5.89,19.9,1.13,5.48,2.96,11.11,2.04,16.9-2.59,22.65-21.1,30.63-16.08,39.23,2.2,3.71,6.69,4.15,10.46,5.96,5.3,2.15,10.76,4.24,15.98,6.45,9.69,5.57,19.05,13.48,25.07,23,2.13,7.14,4.69,14.72,3.71,22.26v.07Z"/>
</svg>