<?xml version="1.0" encoding="UTF-8"?>
<svg id="Layer_1" data-name="Layer 1" xmlns="http://www.w3.org/2000/svg" viewBox="0 0 200 200">
  <path d="M182.01,161.23c-1.78,3.06-3.98,6.21-7.02,8.17-.81.46-1.49,1.34-2.31,1.49-2.61.03-12.29,0-25.55.01-28.37.11-104.77-.08-121.14,0-.82-.06-.98-.55-1.92-1.15-1.42-.91-2.94-1.79-4.11-3.13-1.49-1.52-2.46-3.22-3.58-4.83-.58-.76-1.05-.9-1.09-1.67.16-20.95-.13-88.7,0-116.95.1-1.45-.22-2.17.19-3.16.51-.77,2.52-2.99,3.6-4.13,1.1-1.11,2.28-2.42,3.3-3.54,1.65-1.66,2.61-3.24,4.87-3.28,13.17-.02,42.78.08,51.5.08,1.53-.03,2.42.66,3.55,1.83.87.9,1.93,1.84,2.82,2.78,1.47,1.47,2.43,3.36,3.59,4.87,4.64,5.45,6.7,1.78,11.07,9.67.26.41.69.59,1.16.6,1.14.02,3.09,0,5.66.01,16.96.03,55.34-.07,68.64.08,1.19.23,1.87,1.15,2.74,2.17,1.41,2.01,3.78,3.85,4.9,5.99.4,5.45-.02,23.76.14,45,.02,12.68,0,27.77.01,39.58,0,8.45,0,14.84,0,17.32-.02.88-.45,1.38-1,2.17l-.02.03ZM99.4,89.14c2.08,1.04,5.14,1.11,7.41.8,1.79-.2,1.97-1.83,1.9-3.31-.1-2.09-.07-4.62-.37-6.71-.21-1.46-1.24-1.99-2.73-2.05-1.4-.1-3.21-.03-4.51.37-2.1.6-3.56,2.26-4.44,4.26-1.18,2.36.44,5.45,2.68,6.62l.06.03ZM83.74,107.9c2.86-1.44,6.55-.56,9.5-1.47,1.7-.56,3.18-1.59,4.9-2.13,1.4-.52,2.78-.83,3.56-1.96.9-1.37.88-3.35.47-4.88-.6-1.62-1.85-1.27-4.19-1.33-1.16,0-2.3.01-3.48.02-4.09.05-9.05-.03-12.87.11-1.4.09-1.97.81-2.54,1.89-.48.86-.99,2.12-1.91,3.13-.95,1.02-2.19,1.78-2.85,3.05-2.21,3.73-.23,5.88,3.69,5.56,2.1-.12,3.94-1.08,5.67-1.96l.06-.02ZM108.98,109.18c1.26,1.29,3.88.78,5.68.9,3.34.08,5.86-.05,8.62-1.79,1.56-.89,3.32-1.57,4.15-3.3.81-1.83.81-4.05.76-6-.03-2.08-1.26-2.75-3.09-2.79-3.29-.15-5.15,0-7.16,2.61-.59.55-1,.3-1.63-.23-.67-.56-1.51-1.41-2.21-1.58-1.42-.29-2.86,1.62-3.73,2.58-1.19,1.46-2.23,3.65-2.17,5.85.02,1.23.04,2.76.77,3.72l.03.04ZM107.45,116.41c-1.09-.59-2.91-.72-4.12-.3-1.34.41-1.83,1.65-.58,2.47,1.27.83,4.52.58,5.33-.52.48-.62.12-1.27-.56-1.61l-.06-.03Z"/>
</svg>