<?xml version="1.0" encoding="UTF-8"?>
<svg id="Layer_1" data-name="Layer 1" xmlns="http://www.w3.org/2000/svg" viewBox="0 0 200 200">
  <path d="M171.96,109.08c-.09.41-.26.5-.61.53-2.02.02-10.04.01-20.78.02-19.21-.29-72.37.65-82.11-.26-.45-4.03.05-9.63-.04-14.49.18-2.02-.44-5.11.89-5.03,22.1.14,92.95-.27,102.4.18.35.3.33,2.61.32,3.52-.09,4.72.24,11.16-.05,15.51v.02Z"/>
  <path d="M174.91,148.02c.14,2.48-1.61,4.85-2.35,7.05-.47.88-.65,2.9-1.44,3.29-10.88.17-83.05.05-102.51.07-.57-.06-.59-.6-.63-1.15,0-.51-.05-1.13-.04-1.71.02-3.48.01-10.37.04-14.23,0-.75.02-2.26.25-2.51,9.55-.67,69.84,0,90.59-.21,6.78.12,10.62-.23,13.11.14.62.74.44,1.64.93,2.9.53,1.85,1.86,4.27,2.05,6.29v.06Z"/>
  <path d="M171.67,63.31c-.09.41-.26.5-.61.53-2.02.02-10.02,0-20.74.02-19.14-.29-72.01.64-81.76-.28-.22-.27-.17-1.91-.2-2.75,0-2.77,0-8.01,0-11.64,0-1.99-.01-3.4.06-4.14.03-.58.18-1,.76-.98,21.88.13,92.68-.3,102.12.14.32.1.32,1.94.34,2.79-.07,4.47.32,11.83.05,16.29v.02Z"/>
  <path d="M41.57,111.77c-2.2,1.1-5.67,1.12-8.07.3-1.6-.56-2.66-1.7-3.93-2.98-1.03-1.07-2.16-2.07-2.88-3.38-1.05-1.95-1.26-4.53-.78-6.87.4-2.28,1.89-3.92,3.42-5.54,1.94-2.32,3.65-3.53,6.86-3.47,4.32-.05,9.83-.53,11.6,4.22.67,1.7.7,3.28.73,5.27,0,1.89.14,4.32-.43,5.8-.56,1.7-1.92,2.7-3.22,3.92-1.05.95-1.97,2.05-3.25,2.7l-.05.03Z"/>
  <path d="M41.62,158.08c-2.53,1.02-6.12,1.2-8.92.17-1.87-.71-3.12-2.25-4.39-3.77-1.56-1.77-2.39-4.01-2.59-6.35-.33-3.33.78-6.35,3.28-8.57,1.31-1.27,2.56-2.82,4.25-3.45,2.13-.88,4.09.4,6.06,1.14,1.88.68,3.89,1.22,5.53,2.02,3.28,1.39,3.95,4.9,3.69,8.58-.07,1.8-.04,4.13-.61,5.65-.51,1.43-1.57,2.07-2.78,2.78-1.14.64-2.27,1.28-3.47,1.8l-.06.02Z"/>
  <path d="M41.77,62.96c-2.75,1.5-7.63,1.71-10.14.04-1.22-.89-2.07-2.18-3.08-3.29-1.58-1.69-2.62-3.57-2.84-5.87-.35-4.21,1.02-6.35,4.01-9.06,3.97-4.49,9.1-5.06,13.45-.87,2.97,2.77,5.3,4.7,5.16,9.12-.08,2.29-.98,4.51-2.61,6.13-1.33,1.38-2.32,2.83-3.89,3.78l-.05.03Z"/>
</svg>