<?xml version="1.0" encoding="UTF-8"?>
<svg id="Layer_1" data-name="Layer 1" xmlns="http://www.w3.org/2000/svg" viewBox="0 0 200 200">
  <defs>
    <style>
      .cls-1 {
        fill: #fff;
      }
    </style>
  </defs>
  <path d="M73.94,188.18c-31.62-8.45-54.33-36.33-62.97-67.07-5.56-17.88-3.37-37.11,4.51-53.91,10.62-23.76,30.68-43.7,55.24-52.8,18.39-6.44,39.22-7.34,57.82-1.31,8.57,2.93,16.58,7.3,24.09,12.4,13.66,9.13,25.54,21.09,32.03,36.31,9.68,21.39,10.13,50.49,2.49,72.57-8.28,23.9-28.29,43.18-51.84,52.06-11.11,3.99-23.28,4.62-35.21,4.51-8.74-.04-17.63-.52-26.09-2.76l-.07-.02ZM119.86,127.76c4.89-2.62,7.65-7.75,10.11-12.54,1.59-2.82,2.98-5.74,3.54-8.96,1.72-9.11-1.68-17.91-6.83-25.18-2.56-3.53-6.7-5.45-10.27-7.73-2.56-1.34-4.76-3.13-7.37-4.4-2.45-.99-5.22-1.6-7.82-1.57-1.84.06-3.65.59-5.43,1.04-4.74,1.23-9.72,2.67-12.92,6.56-1.76,2.12-3.75,4.09-5.55,6.14-2.36,2.79-4.53,5.88-5.91,9.26-1.95,5.75-1.83,12.49-.39,18.29.48,1.67,1.27,3.21,2.06,4.77,1.38,3.02,3.21,5.82,5.4,8.26,1.73,2.04,3.75,3.82,5.87,5.47,1.77,1.43,3.58,2.87,5.67,3.78,5.98,2.57,13.51,2.43,19.9,1.09,3.5-.89,6.63-2.52,9.89-4.23l.07-.04Z"/>
  <path class="cls-1" d="M119.73,127.83c-4.31,2.27-8.52,4.36-13.38,4.82-5.58.52-11.77.51-16.75-1.91-3.17-1.58-5.82-4.02-8.5-6.3-4.61-4.26-7.99-9.79-10.08-15.71-1.48-5.86-1.59-12.64.39-18.44,1.39-3.35,3.54-6.42,5.89-9.19,1.8-2.05,3.79-4.02,5.55-6.14,3.21-3.89,8.19-5.33,12.92-6.56,1.78-.45,3.59-.98,5.43-1.04,2.6-.03,5.37.59,7.82,1.57,2.61,1.27,4.81,3.06,7.38,4.4,3.57,2.29,7.71,4.2,10.27,7.74,5.17,7.29,8.57,16.12,6.82,25.26-.56,3.2-1.94,6.09-3.52,8.89-2.47,4.81-5.24,9.96-10.18,12.57l-.07.04ZM106.62,108.94c5.66-2.08,5.87-11.94.88-14.82-1.67-.96-4-1.36-5.99-1.34-4.47-.03-6.11,3.26-5.92,7.15.12,2.71.62,5.84,2.64,7.74,2.18,2,5.62,2.29,8.31,1.28l.07-.03Z"/>
  <path d="M106.49,109c-2.93,1.04-6.71.63-8.84-1.79-1.48-1.95-1.77-4.54-2.02-6.95-.51-5.62,2.58-8.46,8.65-7.19,2.29.38,4.67,1.27,5.66,3.52,1.99,4.1,1.51,10.69-3.42,12.39h-.04Z"/>
</svg>