<?xml version="1.0" encoding="UTF-8"?>
<svg id="Layer_1" data-name="Layer 1" xmlns="http://www.w3.org/2000/svg" viewBox="0 0 200 200">
  <path d="M106.78,193.98c-9.66,1.41-19.48-1.53-28.43-4.78-19.78-2.73-37.62-15.15-49.74-30.75-19.42-19.79-23.14-50.65-18.73-76.93C17.2,19.39,94.72-13.4,146.83,17.36c82.06,50.62,52.43,162.69-40.05,176.62ZM105.52,77.81c8.38-.81,21.6-3.47,22.1,2.56.42,5.07,5.73,33.59-1.76,32.42-8.04-1.26-15.39,2.82-17.09,8.04s.63,15.16,8,15.25c6.83.08,12.61.84,19.5-6.37,3.68-3.84,3.29-7.72,3.16-13.4-.25-11.06-.14-18.89-.25-28.15.14-3-.68-9.77.5-12.31,1.8-5.7,1.17-9.81,1.47-15.79.21-5.56-.95-7.7-6.91-7.49-12.45-1.01-23.82,4.8-36.09,5.54-7.6-.03-22.25,1.42-21.5,11.57-.02,10.51-.03,23.37-.05,34.23-1.16,7.34,3.18,16.95-3.79,18.2-20.48.53-25.34,31.39-.59,27.1,20.61.47,13.99-53.91,16.49-67.79,4.02-3.48,11.68-1.4,16.82-3.61Z"/>
</svg>