<?xml version="1.0" encoding="UTF-8"?>
<svg id="Layer_1" data-name="Layer 1" xmlns="http://www.w3.org/2000/svg" viewBox="0 0 200 200">
  <path d="M152.18,139.76c-2.55,2.46-5.16,4.96-7.45,7.73-3.33,3.4-6.75,6.71-10.1,10.12-4.62,5.01-9.03,10.57-14.27,15.01-5.21,4.41-13.11,4.38-18.9,1.05-2.35-1.35-4.28-3.21-6.44-4.87-4.46-3.58-8.59-7.44-12.32-11.77-4.53-5.24-9.76-10.54-15.01-15.16-2.73-2.23-5.41-4.64-7.9-7.07-2.96-2.87-5.42-6.09-8.35-9.02-4.44-4.6-8.73-8.96-13.35-13.37-2.59-2.51-5.04-5.11-7.51-7.69-2.9-3.04-4.66-4.47-4.51-8.97.22-18.15-.46-51.08.23-65.98.25-1.38.91-2.51,2-3.37,1.35-1.12,3.42-2.39,5.44-3.46,3.8-2.1,8.17-2.43,12.48-2.4,6.88.21,14.94-.37,21.77.46,4.49.81,7.81,1.38,12.56,1.71,2.5.09,4.85.31,7.4.61,8.92.86,12.9.81,18.87,8.14,3.68,3.97,7.65,7.22,11.67,10.74,2.83,2.6,5.52,5.43,8.29,8.11,3.49,3.45,6.34,7.35,9.82,10.7,4.01,3.86,8.48,7.29,12.31,11.41,2.07,2.1,4.3,4.18,6.25,6.35,2.28,2.46,4.23,5.01,6.57,7.34,2.67,2.8,5.74,5.12,8.63,7.79,12.07,11.02,9.98,19.25-1.15,29.92-2.62,2.52-5.79,4.19-8.48,6.58-3.25,2.85-5.81,6.03-8.51,9.31l-.04.05ZM65.14,68.76c7.23-2.67,9.55-12.67,5.69-18.84-1.07-1.54-2.64-2.59-4.24-3.51-3.72-1.99-8.63-3.63-12.71-1.72-4.81,2.36-7.74,7.88-7.24,13.18.19,2.61,1.43,5.12,2.83,7.25,3.18,4.98,10.44,5.96,15.6,3.67l.06-.03Z"/>
</svg>